<svg xmlns="http://www.w3.org/2000/svg" width="196.245" height="166.809" viewBox="0 0 196.245 166.809">
  <g id="Vector_Smart_Object" data-name="Vector Smart Object" transform="translate(-61.664 -52.523)">
    <g id="Group_3" data-name="Group 3" transform="translate(61.664 52.523)">
      <path id="Path_7" data-name="Path 7" d="M95.825,129.818c-14.771,2.544-24.89-3.155-34.16-15.361l25.525-4.778c-4-4.2-7.66-8.114-11.407-11.953-6.741-6.9-6.762-8.744.394-15.428q16-14.944,32.1-29.775l1.333.809q-4.948,9.823-9.9,19.645c-1.108,2.186-2.266,4.348-3.434,6.5-2.262,4.181-1.145,7.337,3.5,8.464,14.674,3.559,28.852,9.5,44.51,8.438a141,141,0,0,1,20.653.008c18.661,1.489,36.431-2.419,54.063-7.594,7.377-2.164,8.428-4.345,5.025-10.972-4.174-8.125-8.388-16.229-11.456-25.272,2.319,2.067,4.672,4.1,6.954,6.21,8.632,7.972,17.3,15.915,25.844,23.975,6.59,6.213,6.552,8.2.378,14.557q-5.161,5.316-10.2,10.742a7.757,7.757,0,0,0-.851,2.077c6.029.87,11.93,1.409,17.677,2.633,6.737,1.433,7.132,3.462,2.2,8.267-7.539,7.345-16.457,10.92-27.869,8.863-.329,2.684-.779,4.793-.812,6.907-.107,6.915.14,13.84-.122,20.749-.383,10.054-6.832,16.164-17.017,16.537-11.583.425-11.585.423-15.087,11.065-2.607,7.923-5.163,15.863-7.82,23.77-2.6,7.734-5.974,10.241-14.094,10.348q-11.269.149-22.542,0c-7.905-.114-11.282-2.58-13.728-9.9-3.288-9.842-6.66-19.664-9.648-29.594-1.258-4.184-3.332-6.332-7.949-5.679a23.1,23.1,0,0,1-3.753.007c-11.314-.262-18.118-6.9-18.287-18.063C95.723,147.707,95.825,139.388,95.825,129.818Zm7.92,12.687c0,4.668-.06,9.337.015,14,.105,6.469,3.579,10.322,10.239,10.524,9.36.285,18.743.256,28.1.008,6.281-.165,10.291-3.461,10.515-9.125.394-9.927.391-19.889,0-29.817-.236-5.9-4.121-9.045-10.316-9.138-9.576-.14-19.159-.164-28.733.02-6.149.117-9.6,3.6-9.785,9.523C103.635,133.165,103.75,137.836,103.745,142.505Zm90.329-23.591c-4.378,0-8.757-.046-13.135.01-7.893.1-11.722,3.467-11.894,10.957q-.3,13.1,0,26.211c.154,6.821,3.873,10.71,10.806,10.931,9.372.3,18.768.272,28.142.018,6.321-.173,10.33-4.018,10.46-9.9.211-9.547.241-19.106-.015-28.651-.157-5.853-3.977-9.308-9.979-9.526C203.67,118.791,198.869,118.929,194.074,118.914Z" transform="translate(-61.664 -52.523)" fill="#0056ff"/>
      <path id="Path_8" data-name="Path 8" d="M84.357,88.7a9.354,9.354,0,0,1-9.609-9.124,9.715,9.715,0,0,1,9.88-9.606A9.9,9.9,0,0,1,93.98,79.54,9.5,9.5,0,0,1,84.357,88.7Z" transform="translate(-10.562 15.6)" fill="#0056ff"/>
      <path id="Path_9" data-name="Path 9" d="M104.461,79.673a9.629,9.629,0,0,1-19.232-.226A9.925,9.925,0,0,1,95.31,69.97,9.724,9.724,0,0,1,104.461,79.673Z" transform="translate(30.381 15.593)" fill="#0056ff"/>
    </g>
  </g>
</svg>
